<?xml version="1.0" standalone="no"?>
<!DOCTYPE svg PUBLIC "-//W3C//DTD SVG 20010904//EN"
 "http://www.w3.org/TR/2001/REC-SVG-20010904/DTD/svg10.dtd">
<svg version="1.0" xmlns="http://www.w3.org/2000/svg"
 width="100.000000pt" height="100.000000pt" viewBox="0 0 100.000000 100.000000"
 preserveAspectRatio="xMidYMid meet">
<metadata>
Created by potrace 1.14, written by Peter Selinger 2001-2017
</metadata>
<g transform="translate(0.000000,100.000000) scale(0.100000,-0.100000)"
fill="#000000" stroke="none">
<path d="M389 924 c-6 -8 -21 -14 -33 -14 -12 0 -30 -6 -41 -14 -11 -7 -32
-16 -47 -20 -15 -3 -29 -14 -33 -25 -3 -10 -16 -23 -29 -29 -13 -6 -27 -20
-31 -31 -3 -11 -15 -23 -26 -26 -11 -4 -22 -19 -26 -36 -3 -16 -12 -34 -19
-40 -8 -6 -14 -21 -14 -33 0 -12 -6 -31 -14 -42 -20 -28 -20 -210 0 -238 8
-11 14 -30 14 -43 0 -13 13 -32 35 -49 19 -14 35 -34 35 -43 -1 -12 -5 -11
-20 8 -11 13 -20 18 -20 13 0 -6 7 -17 15 -24 9 -7 21 -19 28 -26 65 -71 100
-102 116 -102 10 0 24 -7 31 -15 7 -8 21 -15 32 -15 10 0 29 -6 41 -14 30 -19
204 -19 234 0 12 8 31 14 41 14 11 0 25 7 32 15 7 8 21 15 30 15 24 0 163 135
157 152 -4 9 -6 8 -6 -3 -1 -9 -8 -20 -17 -23 -23 -9 -14 24 11 38 27 15 44
38 45 59 0 10 7 28 15 41 8 12 15 40 15 62 0 53 0 72 0 117 0 21 -7 48 -15 60
-8 12 -15 31 -15 44 0 12 -4 24 -9 28 -5 3 -12 19 -16 36 -4 18 -16 35 -31 41
-13 6 -24 16 -24 21 0 17 -91 97 -110 97 -10 0 -23 7 -30 15 -7 8 -21 15 -32
15 -11 0 -29 6 -41 12 -32 18 -213 20 -228 2z m47 -9 c-22 -16 -46 -20 -46 -7
0 15 13 22 39 22 25 -1 25 -1 7 -15z m168 6 c3 -4 3 -11 0 -14 -8 -7 -44 4
-44 14 0 12 37 12 44 0z m-71 -48 c-18 -2 -48 -2 -65 0 -18 2 -4 4 32 4 36 0
50 -2 33 -4z m-262 -24 c-13 -11 -26 -17 -29 -14 -8 8 20 35 37 35 12 -1 11
-5 -8 -21z m146 15 c-3 -3 -12 -4 -19 -1 -8 3 -5 6 6 6 11 1 17 -2 13 -5z
m190 0 c-3 -3 -12 -4 -19 -1 -8 3 -5 6 6 6 11 1 17 -2 13 -5z m148 -14 c23
-26 4 -26 -26 0 -18 15 -20 19 -8 20 9 0 24 -9 34 -20z m-384 1 c-11 -7 -9
-10 9 -16 20 -6 21 -9 7 -16 -20 -12 -55 0 -35 12 10 7 10 9 -2 9 -13 0 -13 1
0 10 8 5 20 10 25 10 6 0 4 -4 -4 -9z m277 1 c9 -6 5 -12 -14 -21 -15 -6 -29
-10 -31 -7 -2 2 5 7 18 11 17 6 19 9 8 16 -8 5 -9 9 -4 9 6 0 16 -4 23 -8z
m-323 -34 c-1 -13 -29 -50 -63 -84 -33 -34 -58 -56 -55 -48 3 9 -2 12 -16 9
-29 -5 -15 18 45 75 26 25 43 39 39 31 -5 -9 -3 -12 6 -9 8 3 14 10 14 17 0 9
20 29 31 31 0 0 0 -10 -1 -22z m122 16 c-3 -3 -12 -4 -19 -1 -8 3 -5 6 6 6 11
1 17 -2 13 -5z m140 0 c-3 -3 -12 -4 -19 -1 -8 3 -5 6 6 6 11 1 17 -2 13 -5z
m118 -26 c0 -6 6 -13 14 -16 10 -3 11 0 5 9 -4 8 6 3 22 -11 20 -16 27 -28 20
-32 -10 -7 -2 -12 16 -9 10 1 68 -79 68 -93 0 -6 -5 -4 -10 4 -5 8 -10 12 -10
8 0 -3 -3 -14 -7 -24 -4 -12 -3 -15 5 -10 8 5 10 2 6 -9 -8 -19 -7 -19 -29 24
-10 19 -12 30 -5 26 8 -5 11 -3 8 6 -3 8 -10 13 -16 12 -5 -1 -16 5 -24 15
-12 15 -11 16 5 3 9 -7 17 -9 17 -3 0 12 -25 34 -31 27 -11 -11 -63 44 -65 69
0 14 2 24 5 20 3 -3 6 -11 6 -16z m-92 -18 c76 -29 130 -79 169 -157 43 -88
45 -179 7 -263 -55 -120 -143 -181 -269 -188 -137 -7 -242 53 -301 174 -84
171 -2 373 179 439 56 21 152 18 215 -5z m-453 -49 c-5 -11 -15 -23 -20 -26
-14 -9 -12 19 2 33 19 19 30 14 18 -7z m715 -29 c-8 -8 -35 20 -35 37 1 12 5
11 21 -8 11 -13 17 -26 14 -29z m-682 -69 c-3 -7 -6 -13 -8 -13 -2 0 -5 6 -8
13 -3 8 1 14 8 14 7 0 11 -6 8 -14z m-52 -34 c-5 -13 -10 -19 -10 -12 -1 15
10 45 15 40 3 -2 0 -15 -5 -28z m-60 -52 c-8 -8 -11 -4 -11 14 0 33 14 47 18
19 2 -12 -1 -27 -7 -33z m849 17 c0 -14 -4 -22 -10 -19 -5 3 -10 17 -10 31 0
14 4 22 10 19 6 -3 10 -17 10 -31z m-93 4 c-3 -8 -6 -5 -6 6 -1 11 2 17 5 13
3 -3 4 -12 1 -19z m-670 -10 c-3 -8 -6 -5 -6 6 -1 11 2 17 5 13 3 -3 4 -12 1
-19z m-40 -10 c-3 -8 -6 -5 -6 6 -1 11 2 17 5 13 3 -3 4 -12 1 -19z m750 0
c-3 -8 -6 -5 -6 6 -1 11 2 17 5 13 3 -3 4 -12 1 -19z m-30 -90 c-2 -18 -4 -6
-4 27 0 33 2 48 4 33 2 -15 2 -42 0 -60z m-690 -5 c-2 -16 -4 -3 -4 27 0 30 2
43 4 28 2 -16 2 -40 0 -55z m-67 -59 c0 -14 -4 -22 -10 -19 -5 3 -10 17 -10
31 0 14 4 22 10 19 6 -3 10 -17 10 -31z m37 14 c-3 -8 -6 -5 -6 6 -1 11 2 17
5 13 3 -3 4 -12 1 -19z m750 0 c-3 -8 -6 -5 -6 6 -1 11 2 17 5 13 3 -3 4 -12
1 -19z m44 -31 c-8 -8 -11 -4 -11 14 0 33 14 47 18 19 2 -12 -1 -27 -7 -33z
m-754 21 c-3 -8 -6 -5 -6 6 -1 11 2 17 5 13 3 -3 4 -12 1 -19z m670 -10 c-3
-8 -6 -5 -6 6 -1 11 2 17 5 13 3 -3 4 -12 1 -19z m-688 -43 c0 -5 -4 -3 -9 5
-5 8 -9 22 -9 30 0 16 17 -16 18 -35z m677 7 c-4 -13 -1 -19 9 -19 8 0 15 5
15 10 0 6 3 8 6 5 9 -9 -25 -68 -37 -65 -7 1 -14 -4 -17 -12 -3 -9 0 -11 8 -6
24 15 -34 -56 -65 -79 -49 -36 -52 -37 -51 -10 2 23 58 81 81 82 5 0 11 6 14
13 2 6 -1 9 -7 6 -5 -4 2 16 17 43 27 52 36 63 27 32z m-628 -28 c10 -19 8
-21 -15 -19 -15 0 -28 7 -31 15 -3 13 -2 13 6 1 8 -11 11 -9 17 8 8 25 8 25
23 -5z m63 -83 c43 -43 64 -100 30 -81 -19 10 -49 42 -50 53 -1 4 -3 6 -5 5
-6 -4 -46 34 -56 53 -19 34 38 13 81 -30z m415 -75 c0 -17 -4 -22 -15 -18 -9
3 -12 1 -7 -6 5 -8 2 -10 -9 -5 -13 5 -14 7 -3 14 10 7 10 9 -2 9 -9 1 -5 6
10 15 14 8 25 14 26 15 0 0 0 -11 0 -24z m-326 -11 c0 -2 -6 -5 -13 -8 -8 -3
-14 1 -14 8 0 7 6 11 14 8 7 -3 13 -6 13 -8z m40 -5 c-8 -5 -19 -10 -25 -10
-5 0 -3 5 5 10 8 5 20 10 25 10 6 0 3 -5 -5 -10z m-105 -30 c3 -6 0 -10 -7
-10 -15 0 -38 19 -38 32 0 10 36 -8 45 -22z m152 24 c-3 -3 -12 -4 -19 -1 -8
3 -5 6 6 6 11 1 17 -2 13 -5z m150 0 c-3 -3 -12 -4 -19 -1 -8 3 -5 6 6 6 11 1
17 -2 13 -5z m162 -25 c-8 -5 -21 -9 -29 -9 -10 1 -7 7 10 21 17 14 26 17 28
9 3 -7 -2 -16 -9 -21z m-226 14 c-13 -2 -33 -2 -45 0 -13 2 -3 4 22 4 25 0 35
-2 23 -4z m107 -13 c-8 -5 -22 -9 -30 -9 -10 0 -8 3 5 9 27 12 43 12 25 0z
m-157 -17 c-7 -2 -21 -2 -30 0 -10 3 -4 5 12 5 17 0 24 -2 18 -5z m90 0 c-7
-2 -19 -2 -25 0 -7 3 -2 5 12 5 14 0 19 -2 13 -5z m-118 -43 c3 -6 -5 -10 -19
-10 -14 0 -28 5 -31 10 -3 6 5 10 19 10 14 0 28 -4 31 -10z m160 0 c-3 -5 -17
-10 -31 -10 -14 0 -22 4 -19 10 3 6 17 10 31 10 14 0 22 -4 19 -10z"/>
<path d="M295 789 c-4 -6 -13 -8 -20 -5 -7 2 -29 -12 -49 -33 -39 -40 -44 -50
-22 -47 17 2 120 96 106 96 -5 0 -12 -5 -15 -11z m-52 -42 c-15 -19 -30 -32
-32 -30 -5 3 49 63 57 63 2 0 -9 -15 -25 -33z"/>
<path d="M700 784 c0 -1 13 -12 29 -23 22 -16 29 -18 27 -6 -1 8 -5 18 -9 22
-7 6 -47 13 -47 7z"/>
<path d="M799 711 c12 -17 19 -37 15 -48 -5 -17 -5 -17 6 0 9 14 7 23 -10 47
-12 17 -24 30 -26 30 -3 0 4 -13 15 -29z"/>
<path d="M491 773 c-1 -14 5 -23 14 -23 9 0 15 9 14 23 0 21 -1 21 -8 2 l-8
-20 -5 20 c-5 18 -6 18 -7 -2z"/>
<path d="M436 765 c4 -8 10 -12 15 -9 14 8 10 24 -6 24 -9 0 -12 -6 -9 -15z"/>
<path d="M540 766 c0 -19 27 -28 33 -11 7 15 -1 25 -20 25 -7 0 -13 -6 -13
-14z"/>
<path d="M596 754 c-8 -20 -8 -24 2 -24 4 0 8 9 9 20 2 24 -3 26 -11 4z"/>
<path d="M360 730 c0 -5 5 -10 11 -10 5 0 7 5 4 10 -3 6 -8 10 -11 10 -2 0 -4
-4 -4 -10z"/>
<path d="M316 721 c-3 -5 1 -14 9 -21 11 -9 14 -8 12 9 -1 22 -12 28 -21 12z"/>
<path d="M455 721 c-77 -19 -147 -82 -171 -154 -42 -125 28 -257 154 -293 221
-64 387 210 230 378 -51 54 -148 85 -213 69z m-45 -111 c-6 -11 -7 -20 -3 -20
4 0 3 -4 -4 -8 -24 -15 -41 -64 -36 -105 3 -31 14 -51 43 -79 21 -21 48 -38
59 -38 16 0 21 -6 21 -26 0 -24 -2 -26 -32 -20 -113 23 -179 172 -119 270 19
30 31 37 74 45 4 0 3 -8 -3 -19z m242 -13 c51 -64 38 -179 -27 -244 -17 -16
-78 -43 -100 -43 -33 0 -15 38 28 59 52 26 78 61 82 110 3 41 -18 101 -35 101
-6 0 -8 5 -5 10 4 6 1 18 -7 27 -12 15 -10 16 17 9 17 -4 38 -17 47 -29z
m-176 -66 c5 2 19 -1 32 -5 17 -6 29 -3 43 10 18 17 19 16 19 -29 0 -94 -85
-120 -120 -38 -13 32 -5 96 9 72 4 -6 12 -11 17 -10z"/>
<path d="M655 480 c-3 -5 -1 -10 4 -10 6 0 11 5 11 10 0 6 -2 10 -4 10 -3 0
-8 -4 -11 -10z"/>
<path d="M667 713 c-10 -10 -8 -23 4 -23 5 0 7 5 3 12 -5 8 -2 9 10 5 10 -4
15 -3 11 3 -7 12 -19 13 -28 3z"/>
<path d="M277 675 c-8 -18 11 -31 25 -17 11 11 3 32 -12 32 -4 0 -10 -7 -13
-15z"/>
<path d="M250 632 c0 -12 19 -26 26 -19 2 2 -2 10 -11 17 -9 8 -15 8 -15 2z"/>
<path d="M731 631 c-9 -6 -10 -11 -2 -15 13 -8 31 1 31 15 0 11 -11 11 -29 0z"/>
<path d="M236 583 c5 -5 12 -12 16 -18 4 -6 8 -2 8 8 0 9 -7 17 -17 17 -9 0
-12 -3 -7 -7z"/>
<path d="M745 581 c-3 -5 0 -13 6 -17 8 -4 9 -3 5 4 -4 7 -3 12 3 12 5 0 12
-6 14 -12 3 -8 6 -6 6 5 1 18 -24 24 -34 8z"/>
<path d="M216 525 c-3 -10 1 -15 13 -15 10 0 18 7 18 15 0 8 -6 15 -13 15 -6
0 -14 -7 -18 -15z"/>
<path d="M763 519 c-1 -11 3 -19 9 -17 15 5 19 38 4 38 -6 0 -12 -9 -13 -21z"/>
<path d="M230 480 c-13 -9 -13 -11 0 -20 15 -10 25 0 18 20 -2 6 -8 6 -18 0z"/>
<path d="M757 474 c-9 -10 2 -24 19 -24 8 0 14 7 14 15 0 15 -21 21 -33 9z"/>
<path d="M226 415 c3 -8 12 -11 20 -8 20 7 17 18 -5 20 -13 1 -18 -3 -15 -12z"/>
<path d="M744 419 c-10 -17 13 -36 27 -22 12 12 4 33 -11 33 -5 0 -12 -5 -16
-11z m26 -9 c0 -5 -2 -10 -4 -10 -3 0 -8 5 -11 10 -3 6 -1 10 4 10 6 0 11 -4
11 -10z"/>
<path d="M256 383 c-12 -12 -6 -33 9 -33 8 0 15 6 15 14 0 17 -14 28 -24 19z"/>
<path d="M726 372 c-3 -4 4 -9 15 -9 23 -2 25 3 4 10 -8 4 -16 3 -19 -1z"/>
<path d="M360 260 c0 -5 5 -10 11 -10 5 0 7 5 4 10 -3 6 -8 10 -11 10 -2 0 -4
-4 -4 -10z"/>
<path d="M630 261 c0 -6 -7 -11 -15 -11 -8 0 -15 -5 -15 -10 0 -7 8 -7 23 1
30 16 30 16 18 24 -6 3 -11 1 -11 -4z"/>
<path d="M398 238 c5 -5 16 -8 23 -6 8 3 3 7 -10 11 -17 4 -21 3 -13 -5z"/>
<path d="M570 229 c0 -5 5 -7 10 -4 6 3 10 8 10 11 0 2 -4 4 -10 4 -5 0 -10
-5 -10 -11z"/>
<path d="M495 220 c-19 -8 -19 -9 3 -9 12 -1 22 4 22 9 0 6 -1 10 -2 9 -2 0
-12 -4 -23 -9z"/>
<path d="M802 313 c-11 -26 -11 -27 3 -9 11 14 15 16 15 5 1 -10 4 -9 11 4 6
10 8 21 5 24 -3 4 -6 0 -6 -8 0 -11 -2 -11 -8 -1 -6 9 -12 5 -20 -15z"/>
<path d="M786 263 c-4 -5 -11 -8 -15 -8 -14 0 -75 -55 -61 -55 13 0 13 -1 0
-10 -8 -5 -11 -10 -7 -10 14 0 67 43 82 67 15 23 15 30 1 16z m-16 -16 c0 -2
-12 -14 -27 -28 l-28 -24 24 28 c23 25 31 32 31 24z"/>
<path d="M190 283 c0 -5 9 -18 20 -28 11 -10 20 -15 20 -10 0 4 7 2 15 -5 9
-7 13 -15 10 -18 -6 -6 24 -42 36 -42 17 0 1 28 -39 69 -25 25 -40 36 -36 25
5 -18 5 -18 -10 0 -9 11 -16 15 -16 9z m95 -81 c-3 -3 -11 0 -18 7 -9 10 -8
11 6 5 10 -3 15 -9 12 -12z"/>
</g>
</svg>
