<?xml version="1.0" standalone="no"?>
<!DOCTYPE svg PUBLIC "-//W3C//DTD SVG 20010904//EN"
 "http://www.w3.org/TR/2001/REC-SVG-20010904/DTD/svg10.dtd">
<svg version="1.0" xmlns="http://www.w3.org/2000/svg"
 width="475.000000pt" height="475.000000pt" viewBox="0 0 475.000000 475.000000"
 preserveAspectRatio="xMidYMid meet">
<metadata>
Created by potrace 1.14, written by Peter Selinger 2001-2017
</metadata>
<g transform="translate(0.000000,475.000000) scale(0.100000,-0.100000)"
fill="#000000" stroke="none">
<path d="M2225 4312 c-30 -3 -240 -37 -282 -46 -66 -14 -190 -53 -278 -88
-467 -184 -842 -534 -1061 -993 -174 -364 -227 -728 -169 -1160 9 -67 62 -275
91 -355 64 -179 165 -366 284 -525 71 -95 232 -264 313 -331 262 -212 554
-352 872 -418 70 -15 103 -20 205 -32 65 -7 332 -8 375 0 17 2 55 8 85 11 232
27 520 128 740 258 184 109 395 290 528 454 160 197 296 456 365 698 55 191
71 304 71 520 1 219 -5 291 -35 438 -59 293 -210 609 -405 848 -56 69 -219
233 -269 271 -16 12 -36 28 -43 35 -32 31 -245 166 -327 207 -207 104 -403
163 -670 202 -51 7 -335 12 -390 6z m430 -102 c300 -45 575 -154 820 -325 767
-536 1026 -1551 608 -2389 -154 -310 -363 -545 -659 -741 -348 -232 -793 -342
-1209 -301 -70 6 -80 8 -188 27 -95 17 -266 69 -367 112 -616 264 -1031 798
-1140 1467 -19 114 -21 397 -4 520 48 348 178 656 390 925 310 394 752 643
1259 709 118 15 377 13 490 -4z"/>
<path d="M2361 4095 c-12 -31 -21 -60 -21 -65 0 -11 -4 -12 -83 -15 -31 -1
-60 -4 -62 -7 -3 -3 16 -22 42 -43 27 -21 51 -41 55 -44 4 -4 -1 -36 -12 -71
-11 -36 -20 -68 -20 -73 0 -4 29 11 65 33 l64 41 61 -41 c33 -22 60 -37 60
-33 0 4 -9 37 -20 73 l-19 64 36 31 c80 65 79 64 63 66 -8 0 -38 2 -67 2 -29
1 -56 7 -61 12 -5 6 -17 34 -27 62 -9 29 -20 55 -25 58 -5 3 -18 -20 -29 -50z"/>
<path d="M1534 3906 c-54 -46 -87 -116 -92 -193 -3 -44 -1 -63 7 -63 26 0 117
105 130 150 22 72 23 140 2 140 -4 0 -25 -15 -47 -34z"/>
<path d="M3170 3895 c0 -85 59 -199 120 -230 16 -8 32 -15 36 -15 4 0 4 26 1
59 -8 93 -50 170 -115 213 -39 25 -42 23 -42 -27z"/>
<path d="M1820 3859 c-87 -13 -165 -61 -195 -120 -15 -27 -14 -29 8 -34 59
-15 153 20 216 81 72 70 65 88 -29 73z"/>
<path d="M2866 3862 c-15 -25 80 -116 146 -141 42 -16 111 -22 127 -12 12 8
11 15 -9 44 -28 40 -74 74 -130 93 -52 18 -127 27 -134 16z"/>
<path d="M1315 3776 c-45 -48 -78 -122 -78 -176 0 -127 8 -135 65 -72 42 47
71 119 71 175 0 122 -6 128 -58 73z"/>
<path d="M3394 3774 c-9 -51 2 -129 26 -179 22 -45 73 -105 90 -105 30 0 25
143 -8 211 -22 44 -76 109 -93 109 -4 0 -11 -16 -15 -36z"/>
<path d="M1469 3633 c-152 -108 -316 -283 -416 -441 -162 -258 -252 -567 -247
-842 2 -76 12 -204 19 -240 3 -14 8 -38 10 -55 62 -356 278 -711 575 -942 128
-99 322 -211 425 -243 53 -17 60 -23 63 -60 16 -207 403 -340 707 -243 165 52
261 145 264 255 1 22 8 29 39 39 62 20 222 99 307 151 267 166 498 432 610
702 91 221 126 389 130 621 4 266 -37 461 -144 680 -112 229 -227 378 -422
549 -55 49 -187 136 -205 136 -27 0 -2 -26 64 -68 148 -92 310 -258 426 -434
298 -453 334 -1029 94 -1512 -175 -355 -458 -614 -835 -765 -67 -27 -70 -27
-88 9 -8 16 -25 39 -38 51 -33 32 -121 87 -150 94 -52 13 -49 28 14 80 141
116 268 283 309 406 34 100 34 97 45 569 4 146 8 282 9 303 2 21 -1 40 -7 44
-13 8 -134 31 -205 38 -31 4 -68 8 -81 10 -101 17 -450 23 -599 12 -136 -11
-339 -37 -402 -52 -8 -2 -18 -4 -21 -4 -4 -1 -5 -45 -4 -98 2 -54 6 -210 10
-348 11 -425 15 -452 94 -585 52 -87 239 -291 309 -338 23 -15 23 -15 -25 -36
-45 -19 -92 -49 -136 -86 -10 -8 -28 -32 -39 -52 -12 -21 -26 -38 -32 -38 -22
1 -174 67 -259 113 -196 107 -413 307 -545 502 -163 241 -251 549 -246 863 4
286 75 542 216 775 106 174 276 355 436 465 51 35 92 67 92 73 0 21 -32 6
-121 -58z m802 -2621 c41 -27 82 -51 91 -55 11 -4 48 14 105 50 l88 55 65 -21
c152 -49 236 -167 190 -267 -39 -86 -155 -157 -295 -182 -52 -9 -197 -9 -256
1 -108 17 -227 72 -273 127 -74 89 -50 196 62 274 32 22 117 61 143 65 3 1 39
-21 80 -47z"/>
<path d="M2133 893 c-73 -15 -99 -119 -44 -174 33 -32 63 -38 128 -24 18 4 22
12 21 44 0 23 -6 42 -13 45 -18 7 -25 -3 -25 -36 0 -24 -4 -28 -30 -28 -62 0
-93 77 -49 121 16 16 30 20 65 17 37 -3 44 0 44 14 0 10 -1 18 -2 18 -34 5
-78 7 -95 3z"/>
<path d="M2359 885 c-1 -14 -1 -157 0 -177 1 -11 9 -18 21 -18 19 0 20 7 20
103 0 96 -1 103 -20 103 -11 0 -20 -5 -21 -11z"/>
<path d="M2520 793 c0 -96 1 -103 20 -103 22 0 23 3 22 79 l-1 55 47 -67 c34
-47 53 -66 70 -67 21 0 22 3 22 103 0 96 -1 103 -20 103 -21 0 -24 -17 -20
-93 1 -18 -1 -33 -3 -33 -3 0 -25 28 -50 63 -31 43 -52 63 -66 63 -20 0 -21
-5 -21 -103z"/>
<path d="M1588 3636 c-21 -7 -50 -21 -64 -31 l-27 -17 34 -21 c66 -43 227 -29
283 24 20 18 19 19 -20 35 -52 23 -158 28 -206 10z"/>
<path d="M3000 3639 c-53 -16 -64 -28 -44 -50 49 -55 229 -65 291 -17 54 43
-147 97 -247 67z"/>
<path d="M1078 3564 c-57 -82 -77 -166 -58 -247 19 -80 23 -85 52 -56 48 48
76 157 69 270 0 15 -9 37 -19 49 l-18 22 -26 -38z"/>
<path d="M3637 3570 c-33 -75 -5 -232 52 -301 l29 -34 17 40 c37 86 14 218
-50 291 l-33 39 -15 -35z"/>
<path d="M1470 3503 c-53 -8 -118 -35 -139 -57 l-22 -23 48 -18 c72 -28 149
-23 228 13 37 18 65 37 65 46 0 25 -111 49 -180 39z"/>
<path d="M3168 3494 c-26 -8 -50 -19 -53 -24 -9 -15 71 -62 127 -75 53 -11
130 -5 182 15 36 13 24 35 -38 65 -64 31 -151 39 -218 19z"/>
<path d="M2896 3491 c-25 -5 -27 -8 -14 -19 23 -19 23 -211 0 -229 -14 -10 -8
-12 38 -12 42 0 51 2 38 10 -16 9 -18 26 -18 129 0 65 -3 121 -7 123 -5 2 -21
1 -37 -2z"/>
<path d="M1743 3464 c-45 -22 -65 -58 -65 -115 0 -63 29 -105 80 -116 31 -6
123 -6 129 1 1 1 3 21 4 44 2 28 8 42 17 42 7 0 11 4 7 9 -6 11 -95 10 -95 0
0 -4 5 -9 11 -11 17 -6 19 -66 3 -72 -24 -9 -74 16 -89 45 -21 39 -19 112 3
138 9 12 34 24 54 27 31 5 41 2 63 -20 14 -14 27 -26 29 -26 1 0 1 13 -2 29
-3 19 -11 31 -26 35 -38 10 -90 6 -123 -10z"/>
<path d="M1960 3465 c-19 -22 5 -48 31 -34 15 8 17 14 9 29 -13 24 -23 25 -40
5z"/>
<path d="M2610 3465 c-19 -22 5 -48 31 -34 15 8 17 14 9 29 -13 24 -23 25 -40
5z"/>
<path d="M3009 3464 c-11 -14 -10 -18 6 -30 17 -13 21 -13 32 2 9 13 10 21 2
31 -15 17 -24 16 -40 -3z"/>
<path d="M2078 3405 c-27 -23 -38 -43 -18 -30 11 7 11 9 13 -66 2 -68 17 -90
54 -80 15 4 29 13 31 20 3 10 0 11 -17 2 -23 -13 -23 -13 -23 64 0 62 1 63 22
58 11 -3 20 0 20 6 0 6 -9 11 -20 11 -13 0 -20 7 -20 20 0 26 -9 25 -42 -5z"/>
<path d="M1956 3393 c-21 -3 -26 -7 -16 -13 22 -14 24 -122 3 -137 -14 -11 -9
-13 32 -13 38 0 46 3 37 12 -7 7 -12 42 -12 85 0 40 -3 72 -7 72 -5 -1 -21 -4
-37 -6z"/>
<path d="M2240 3393 c-20 -7 -50 -34 -50 -45 0 -16 29 -8 44 13 19 27 49 18
44 -13 -2 -15 -13 -24 -35 -30 -40 -10 -66 -44 -53 -68 13 -24 44 -30 74 -15
21 11 27 11 36 0 6 -7 19 -12 28 -10 9 2 19 4 22 4 3 1 -2 6 -10 11 -10 6 -15
26 -15 57 -1 64 -11 90 -38 97 -25 7 -26 6 -47 -1z m40 -108 c0 -13 -8 -29
-19 -34 -32 -18 -44 15 -15 43 22 23 34 20 34 -9z"/>
<path d="M2387 3393 c-24 -4 -25 -6 -12 -19 22 -23 21 -120 -2 -133 -14 -8 -7
-10 32 -11 38 0 46 3 37 12 -13 13 -16 86 -4 104 14 20 41 24 50 6 14 -27 8
-102 -8 -112 -10 -7 1 -10 35 -10 34 0 45 3 36 9 -10 7 -14 26 -12 65 2 44 -2
59 -19 76 -24 24 -43 25 -64 5 -8 -8 -17 -15 -20 -15 -3 0 -6 7 -6 15 0 8 -3
14 -7 14 -5 -1 -20 -4 -36 -6z"/>
<path d="M2606 3391 c-25 -5 -27 -8 -14 -19 24 -19 22 -147 -3 -195 -17 -35
-18 -37 -1 -28 47 25 57 49 60 152 2 54 0 98 -5 98 -4 -1 -21 -4 -37 -8z"/>
<path d="M2750 3393 c-20 -8 -50 -34 -50 -45 0 -16 29 -8 44 13 19 27 49 18
44 -13 -2 -15 -13 -24 -35 -30 -40 -10 -66 -44 -53 -68 12 -23 55 -31 77 -15
14 11 21 10 36 0 11 -8 26 -11 34 -8 12 5 12 7 2 14 -7 4 -14 27 -15 51 -3 66
-4 72 -12 85 -9 14 -52 24 -72 16z m38 -110 c-2 -20 -9 -28 -22 -28 -26 0 -31
19 -11 39 24 24 37 19 33 -11z"/>
<path d="M3002 3392 c-20 -3 -20 -5 -7 -19 21 -21 18 -120 -4 -133 -11 -7 -2
-9 34 -10 38 0 46 3 37 12 -7 7 -12 41 -12 83 0 75 0 74 -48 67z"/>
<path d="M840 3279 c-32 -82 -25 -192 16 -263 16 -27 34 -49 39 -49 6 0 19 15
30 34 16 27 20 52 20 124 0 78 -4 97 -28 147 -15 31 -33 58 -40 61 -9 3 -22
-16 -37 -54z"/>
<path d="M3872 3315 c-63 -80 -72 -267 -16 -340 l15 -20 16 20 c57 74 76 208
42 299 -25 67 -33 72 -57 41z"/>
<path d="M1266 3284 c-58 -18 -121 -57 -135 -83 -9 -17 -5 -20 34 -30 60 -15
102 -14 166 5 66 20 139 68 139 92 0 10 -90 32 -128 31 -15 0 -49 -7 -76 -15z"/>
<path d="M3332 3286 l-44 -11 22 -28 c55 -69 215 -107 308 -73 l34 12 -29 28
c-68 68 -190 99 -291 72z"/>
<path d="M2959 3139 c-10 -10 -19 -25 -20 -31 0 -7 -1 -39 -2 -71 l-2 -57 30
1 c17 0 24 3 18 6 -7 2 -13 22 -13 43 0 21 6 41 13 44 10 5 10 7 0 12 -7 3
-13 16 -13 30 0 21 3 23 32 17 20 -4 29 -3 25 4 -13 21 -48 22 -68 2z"/>
<path d="M1769 3139 c-8 -5 -9 -9 -3 -9 15 0 15 -133 0 -142 -6 -4 7 -8 29 -8
26 0 35 3 27 9 -10 6 -13 28 -10 79 2 59 0 72 -13 75 -9 3 -23 1 -30 -4z"/>
<path d="M2195 3140 c-10 -17 12 -37 25 -24 8 8 6 15 -4 23 -10 9 -16 9 -21 1z"/>
<path d="M2793 3139 c-83 -31 -60 -159 30 -159 33 0 76 29 78 53 1 7 3 22 4
33 5 46 -63 91 -112 73z m61 -31 c43 -61 -10 -155 -56 -100 -24 28 -29 53 -17
89 13 40 49 45 73 11z"/>
<path d="M2113 3098 c-5 -7 -7 -37 -5 -65 4 -48 6 -53 27 -53 13 0 27 5 30 11
4 6 0 9 -11 7 -14 -2 -18 4 -19 35 -1 24 3 37 11 37 7 0 16 5 19 11 4 6 0 9
-11 7 -11 -2 -18 2 -16 10 1 6 -2 12 -7 12 -5 0 -13 -6 -18 -12z"/>
<path d="M2264 3088 c-11 -12 -13 -18 -6 -14 9 5 12 -6 12 -43 0 -48 1 -51 26
-51 21 0 23 2 12 14 -16 16 -16 59 0 78 8 11 7 17 -7 25 -16 10 -22 8 -37 -9z"/>
<path d="M2498 3096 c-15 -11 -16 -26 -2 -93 5 -24 37 -32 49 -13 4 6 1 9 -7
8 -9 -2 -14 11 -16 40 -2 27 1 42 7 38 5 -4 12 -2 16 4 3 5 0 10 -9 10 -8 0
-16 4 -18 9 -2 5 -10 4 -20 -3z"/>
<path d="M1850 3079 c0 -5 4 -10 9 -14 10 -6 7 -57 -4 -75 -4 -6 4 -10 19 -10
22 0 24 3 19 33 -5 34 16 65 35 53 11 -7 10 -55 -1 -73 -6 -10 1 -13 24 -13
24 0 29 3 22 13 -6 6 -9 23 -8 37 4 45 -10 58 -65 57 -27 -1 -50 -4 -50 -8z"/>
<path d="M2013 3084 c-23 -10 -15 -50 12 -62 30 -14 33 -32 5 -32 -11 0 -20 5
-20 10 0 6 -4 10 -10 10 -5 0 -7 -7 -4 -15 7 -17 55 -20 71 -4 17 17 3 49 -23
55 -25 7 -31 19 -14 29 6 4 18 1 27 -7 14 -11 16 -11 11 2 -5 16 -34 23 -55
14z"/>
<path d="M2188 3076 c10 -14 9 -67 -1 -83 -6 -10 1 -13 25 -13 18 0 28 4 21 8
-6 4 -11 27 -10 52 2 40 0 45 -21 46 -15 1 -19 -2 -14 -10z"/>
<path d="M2349 3085 c-3 -2 -3 -26 1 -52 4 -43 8 -48 33 -51 15 -2 27 1 27 7
0 6 -7 11 -15 11 -11 0 -15 12 -15 45 0 31 -4 45 -13 45 -8 0 -16 -2 -18 -5z"/>
<path d="M2417 3079 c6 -6 8 -23 3 -42 -9 -42 -3 -57 22 -57 14 0 18 5 14 16
-3 9 -6 33 -6 55 0 34 -3 39 -22 39 -16 0 -19 -3 -11 -11z"/>
<path d="M2594 3082 c-6 -4 -16 -17 -23 -30 -18 -33 9 -72 49 -72 16 0 32 5
35 11 4 6 1 10 -6 8 -31 -4 -49 2 -49 16 0 8 6 16 13 16 6 1 17 2 22 4 6 1 16
3 23 3 17 3 15 17 -4 36 -16 17 -42 20 -60 8z m39 -16 c3 -8 -1 -17 -9 -20
-26 -10 -32 -7 -27 14 6 23 28 27 36 6z"/>
<path d="M1153 3066 c-23 -8 -57 -23 -77 -35 -37 -23 -96 -91 -96 -110 0 -11
41 -15 110 -11 52 3 134 46 185 96 62 63 60 74 -17 73 -35 0 -82 -6 -105 -13z"/>
<path d="M3440 3069 c0 -6 24 -34 53 -63 63 -63 144 -98 229 -100 31 0 60 2
63 6 22 22 -84 121 -163 151 -48 19 -182 24 -182 6z"/>
<path d="M685 3002 c-3 -9 -9 -47 -12 -83 -8 -97 32 -204 99 -267 23 -21 26
-21 39 -6 23 28 17 167 -10 234 -38 94 -101 160 -116 122z"/>
<path d="M4044 3002 c-78 -65 -130 -255 -94 -341 10 -26 15 -29 31 -20 29 15
85 107 102 164 15 53 16 115 3 178 -9 42 -13 43 -42 19z"/>
<path d="M1556 2913 c-3 -4 2 -12 12 -19 15 -11 18 -28 17 -140 0 -114 -2
-129 -18 -132 -38 -7 -14 -22 36 -22 49 1 51 2 32 16 -18 13 -20 27 -21 121
l-1 105 26 -30 c14 -16 58 -71 96 -121 39 -50 76 -93 83 -96 13 -5 13 -5 13
165 0 118 4 140 25 140 8 0 13 4 10 9 -6 8 -96 12 -96 3 0 -3 7 -10 16 -16 11
-9 16 -32 17 -90 1 -43 -1 -80 -4 -82 -6 -3 -117 130 -151 179 -7 11 -83 19
-92 10z"/>
<path d="M2591 2906 c-17 -20 -4 -56 18 -56 28 0 47 28 34 48 -14 23 -37 26
-52 8z"/>
<path d="M1091 2837 c-85 -33 -201 -153 -201 -209 0 -43 118 -13 200 52 42 33
95 110 105 153 7 26 5 27 -23 25 -17 -1 -53 -11 -81 -21z"/>
<path d="M3578 2814 c35 -97 148 -187 260 -208 43 -8 49 10 22 63 -46 91 -155
172 -253 186 l-47 7 18 -48z"/>
<path d="M2831 2799 c-38 -23 -45 -24 -38 -4 5 11 -3 14 -38 13 -49 -1 -52 -3
-31 -23 10 -10 14 -37 13 -87 0 -63 -3 -75 -21 -85 -18 -11 -12 -12 44 -12 53
0 62 2 49 12 -18 14 -22 86 -7 128 10 29 37 42 59 29 19 -12 20 -130 1 -152
-14 -17 -11 -18 44 -18 51 1 57 2 42 14 -14 10 -18 29 -18 87 0 83 -4 94 -41
108 -21 7 -33 5 -58 -10z"/>
<path d="M3065 2812 c-53 -11 -85 -83 -50 -112 14 -12 14 -15 -1 -31 -14 -15
-15 -24 -7 -42 8 -18 8 -26 -2 -33 -26 -18 -27 -51 -1 -80 21 -25 30 -29 75
-27 58 1 97 22 111 59 21 54 -17 87 -110 98 -25 3 -46 5 -48 5 -2 1 -2 6 0 13
3 7 25 13 53 13 39 2 53 7 72 29 16 19 21 34 17 52 -5 20 -2 24 15 24 12 0 21
6 21 13 0 23 -11 27 -34 11 -13 -8 -25 -12 -28 -9 -10 10 -63 21 -83 17z m43
-34 c16 -16 15 -63 -1 -76 -18 -15 -57 12 -57 38 0 46 30 66 58 38z m25 -200
c20 -10 22 -39 5 -56 -17 -17 -74 -15 -92 4 -9 8 -16 28 -16 44 0 27 1 28 43
23 23 -3 50 -10 60 -15z"/>
<path d="M1902 2803 c-10 -4 -9 -8 4 -18 13 -9 18 -29 19 -83 1 -99 32 -127
100 -92 30 15 35 16 35 3 0 -11 9 -14 40 -10 41 5 68 17 37 17 -20 0 -19 -7
-21 100 l-1 85 -43 1 c-42 2 -56 -9 -27 -20 11 -4 15 -21 15 -65 0 -54 -3 -62
-25 -77 -42 -27 -55 -6 -55 87 l0 79 -32 -1 c-18 0 -39 -3 -46 -6z"/>
<path d="M2181 2802 c-8 -3 -5 -9 8 -19 18 -12 21 -25 21 -83 0 -60 -3 -71
-22 -84 -21 -15 -18 -16 52 -16 71 1 73 2 49 15 -24 13 -26 19 -24 72 1 32 3
64 4 71 0 8 13 12 34 10 40 -2 58 8 50 27 -7 20 -43 19 -71 -1 -20 -14 -22
-14 -22 1 0 12 -9 15 -33 13 -19 -1 -39 -4 -46 -6z"/>
<path d="M2396 2795 c-42 -42 -26 -87 40 -116 53 -22 58 -52 9 -57 -23 -3 -35
3 -52 25 l-23 28 0 -32 c0 -38 8 -44 59 -45 57 -1 78 10 90 43 14 41 0 66 -47
86 -54 22 -65 33 -51 49 17 21 57 17 69 -6 6 -11 14 -20 19 -20 9 0 8 31 -3
48 -10 17 -91 15 -110 -3z"/>
<path d="M2554 2801 c-2 -2 5 -10 16 -18 16 -11 19 -25 19 -83 0 -60 -3 -72
-22 -85 -20 -14 -17 -15 48 -15 64 0 68 1 48 15 -18 13 -20 23 -19 105 l1 90
-43 -2 c-24 -2 -45 -5 -48 -7z"/>
<path d="M601 2657 c-31 -80 46 -267 134 -326 19 -13 38 -22 41 -19 3 3 5 37
6 75 1 58 -4 78 -30 133 -36 74 -52 94 -104 134 l-38 28 -9 -25z"/>
<path d="M4130 2663 c-83 -56 -142 -163 -145 -263 -1 -36 0 -70 2 -76 14 -37
110 55 149 142 31 70 44 154 30 188 -11 26 -12 26 -36 9z"/>
<path d="M1063 2585 c-60 -27 -141 -103 -165 -155 -9 -20 -21 -54 -26 -77 l-9
-41 27 8 c130 37 225 135 254 263 8 34 -9 35 -81 2z"/>
<path d="M3624 2574 c18 -91 86 -177 178 -224 80 -40 102 -40 95 -1 -24 116
-133 228 -251 257 -29 7 -29 7 -22 -32z"/>
<path d="M1093 2344 c-108 -53 -216 -246 -187 -336 5 -17 7 -17 37 -2 109 57
193 195 185 308 l-3 45 -32 -15z"/>
<path d="M3637 2347 c-6 -16 1 -81 13 -127 23 -85 93 -170 178 -218 28 -16 29
-16 35 23 10 69 -37 180 -112 258 -44 48 -107 82 -114 64z"/>
<path d="M557 2294 c-9 -10 14 -98 39 -147 14 -29 42 -69 62 -91 36 -37 148
-100 162 -91 11 7 -7 90 -29 138 -23 53 -83 122 -130 151 -40 25 -97 47 -104
40z"/>
<path d="M4145 2276 c-97 -45 -185 -165 -200 -273 l-6 -42 29 8 c76 22 159 94
205 179 26 48 47 152 31 152 -5 0 -31 -11 -59 -24z"/>
<path d="M1129 2063 c-71 -64 -127 -189 -124 -278 4 -109 6 -112 61 -70 81 62
138 190 130 290 -3 33 -5 68 -5 78 -1 26 -17 21 -62 -20z"/>
<path d="M3574 2075 c-3 -14 -5 -58 -3 -98 5 -96 49 -187 121 -252 61 -54 70
-49 70 43 1 107 -43 214 -117 288 -51 51 -62 54 -71 19z"/>
<path d="M593 1904 c-8 -22 48 -112 104 -165 73 -69 162 -108 231 -100 20 2
14 30 -18 86 -53 93 -154 164 -259 183 -41 8 -54 7 -58 -4z"/>
<path d="M4091 1904 c-104 -27 -196 -103 -242 -199 -31 -64 -27 -77 20 -69
116 20 223 97 279 201 42 80 34 90 -57 67z"/>
<path d="M3447 1809 c-31 -95 -19 -219 31 -315 22 -42 67 -94 82 -94 11 0 30
65 39 135 12 91 -34 224 -104 298 -14 15 -27 27 -29 27 -2 0 -10 -23 -19 -51z"/>
<path d="M1254 1818 c-53 -63 -94 -193 -88 -278 5 -56 24 -129 36 -136 30 -19
111 115 129 214 16 85 -7 232 -37 232 -7 0 -25 -15 -40 -32z"/>
<path d="M1432 1621 c-74 -101 -76 -345 -4 -439 l18 -23 20 23 c46 51 68 127
68 233 1 89 -2 107 -28 162 -15 34 -34 64 -41 67 -7 2 -22 -8 -33 -23z"/>
<path d="M3280 1618 c-67 -108 -68 -273 -4 -400 30 -60 38 -64 63 -32 43 55
66 186 49 289 -8 53 -63 175 -79 175 -5 0 -18 -15 -29 -32z"/>
<path d="M723 1553 c-24 -9 -13 -32 42 -91 63 -68 133 -107 217 -120 56 -9
136 -8 145 2 9 8 -36 73 -73 105 -86 76 -264 132 -331 104z"/>
<path d="M3903 1545 c-107 -25 -220 -102 -259 -176 -13 -25 -12 -27 13 -32 89
-17 221 19 303 84 52 41 108 114 96 126 -12 12 -99 11 -153 -2z"/>
<path d="M1625 1436 c-24 -79 -26 -175 -4 -252 17 -63 70 -154 107 -187 20
-18 21 -18 35 10 36 71 39 208 7 305 -22 67 -77 155 -108 174 -16 11 -20 6
-37 -50z"/>
<path d="M3092 1475 c-26 -19 -67 -87 -94 -158 -37 -96 -28 -281 16 -325 12
-13 20 -7 60 48 82 111 108 253 71 383 -11 37 -22 67 -25 67 -3 0 -15 -7 -28
-15z"/>
<path d="M978 1222 c-41 -9 -68 -20 -68 -28 0 -17 77 -82 120 -101 103 -45
205 -55 299 -29 29 8 56 17 59 20 9 10 -68 76 -117 100 -97 50 -188 61 -293
38z"/>
<path d="M3658 1234 c-2 -1 -23 -5 -48 -9 -25 -4 -69 -18 -99 -32 -54 -26
-131 -87 -131 -104 0 -29 150 -47 245 -30 77 14 176 63 210 103 29 35 27 39
-30 57 -36 11 -141 22 -147 15z"/>
<path d="M1370 979 c-61 -8 -125 -29 -165 -55 -25 -16 -25 -17 -8 -36 83 -92
390 -103 482 -17 l24 23 -29 23 c-59 47 -195 75 -304 62z"/>
<path d="M3245 974 c-118 -20 -193 -65 -165 -98 39 -48 219 -78 332 -57 65 13
159 56 165 78 2 6 -15 23 -39 37 -78 45 -182 60 -293 40z"/>
</g>
</svg>
